# xmcd
#
# Track frame offsets:
#	150
#	16038
#	30187
#	44621
#	59323
#	72243
#	90595
#	102657
#	119177
#	138172
#	154735
#	168653
#	184387
#	201020
#	218416
#	238114
#	253086
#	270454
#	286896
#	301394
#	312139
#
# Disc length: 4444 seconds
#
# Revision: 0
# Processed by: cddbd v1.5.1PL0 Copyright (c) Steve Scherf et al.
# Submitted via: dBpowerAMP V4.0
#
DISCID=2b115a15
DTITLE=Kenny Rogers - The Defintive Collection
DYEAR=1900
DGENRE=
TTITLE0=The Gambler
TTITLE1=Daytime Friends
TTITLE2=But You Know I Love You
TTITLE3=(Hey Won't You Play) Another Somebody Done Somebody Wrong Song
TTITLE4=Ruby Don't Take Your Love To Town
TTITLE5=Someting's Burning
TTITLE6=Rauben James
TTITLE7=Lucile
TTITLE8=She Believes In Me
TTITLE9=You Decorate My Life
TTITLE10=AllI Ever Need is You (with Dottie West)
TTITLE11=I Don't Need You
TTITLE12=Don't Fall With A Dreamer(with Kim Carnes)
TTITLE13=Lady
TTITLE14=Coward Of The County
TTITLE15=Share Your Love With Me
TTITLE16=We've Got Tonight (with Sheena Easton)
TTITLE17=Love Will Turn You Around
TTITLE18=Love The World Away
TTITLE19=Anyone Who Isn't Me Tonight(with Dottie West)
TTITLE20=Through The Years
EXTD=Kenny Rogers The Definitive Collection
EXTT0=
EXTT1=
EXTT2=
EXTT3=
EXTT4=
EXTT5=
EXTT6=
EXTT7=
EXTT8=
EXTT9=
EXTT10=
EXTT11=
EXTT12=
EXTT13=
EXTT14=
EXTT15=
EXTT16=
EXTT17=
EXTT18=
EXTT19=
EXTT20=
PLAYORDER=
